<?xml version="1.0" encoding="UTF-8"?>
<svg id="Layer_1" data-name="Layer 1" xmlns="http://www.w3.org/2000/svg" viewBox="0 0 210.65 210.65">
  <defs>
    <style>
      .cls-1 {
        fill: #f8f0f3;
      }

      .cls-2 {
        fill: #fefefe;
      }

      .cls-3 {
        fill: #e4e3e3;
      }

      .cls-4 {
        fill: #fdfdfd;
      }

      .cls-5 {
        fill: #8bc8fe;
      }

      .cls-6 {
        fill: #ac73fe;
      }

      .cls-7 {
        fill: #c0a8b3;
      }

      .cls-8 {
        fill: #afaeae;
      }

      .cls-9 {
        fill: #e097b9;
      }

      .cls-10 {
        fill: #e097b8;
      }
    </style>
  </defs>
  <path class="cls-2" d="M.02,105.22C.02,70.46,.02,35.7,0,.94,0,.17,.17,0,.94,0c69.59,.02,139.18,.02,208.76,0,.77,0,.94,.17,.94,.94-.02,69.59-.02,139.18,0,208.76,0,.77-.17,.94-.94,.94-69.59-.02-139.18-.02-208.76,0-.77,0-.94-.17-.94-.94,.02-34.83,.02-69.66,.02-104.48Zm195.4-9.65c.01-3.76-.19-7.55,.12-11.29,.2-2.37-.35-2.3-2.25-2.27-.27,0-.55,.02-.82,.02-8.21,0-16.41,0-24.62,0-.86,0-1.23,.38-1.15,1.27,.34,3.76,.07,7.52,.14,11.28,0,.45,.05,.92-.58,1.01-3.79,0-7.57-.04-11.36-.01-1.38,0-1.37,.07-1.38-1.31,0-4.23-.02-8.46-.03-12.69,.01-2.8,.03-5.6,.03-8.4,0-9.32-.02-18.65-.02-27.97,0-.55,0-1.1,0-1.65,0-.96,0-1.92,0-2.88,.01-6.03,.03-12.06,.04-18.1,0-.61-.04-1.22-.06-1.83-.09-.39-.37-.62-.65-.88-.97-.88-2.12-.5-3.22-.53-2.87,0-5.74-.04-8.61,0-.83,.01-1.04-.24-1.03-1.04,.04-3.21,.02-6.42,0-9.64,0-.5,.15-1.03-.19-1.49,0-.6-.36-.69-.85-.61-.96,0-1.92,0-2.88,0-.21,0-.41,0-.62,0-3.69-.11-7.38-.03-11.08-.13-4.89-.14-9.79-.05-14.68-.06-1.65,0-1.78,.1-1.81,1.8-.06,3.32-.1,6.63-.15,9.95-.02,1.61,.12,1.4-1.46,1.41-2.57,.02-5.14,.08-7.7,0-1.71-.05-3.64,1.43-3.23,3.29,.09,.39,.03,.82,.04,1.23,0,.68,.01,1.37,.02,2.05,0,1.77,0,3.55,.01,5.32q0,1.46-1.47,1.5c-1.78,0-3.56,0-5.34-.01-7.39,.05-14.78,.09-22.17,.17-.85,0-1.12-.22-1.1-1.09,.07-3.01,.06-6.03,.08-9.04,.01-2.12-1.05-3.18-3.19-3.19-2.77,0-5.55-.01-8.32-.02-.4,0-.85,.09-.86-.56-.03-2.39-.12-4.78-.09-7.18,.01-1.4,.11-2.79-.07-4.19-.12-.93-.5-1.26-1.45-1.25-6.88,.11-13.76-.04-20.64,.17-2.91,.09-5.82,.06-8.73,0-.93-.02-1.23,.39-1.26,1.18-.03,.65-.02,1.3-.03,1.95,0,2.74,0,5.48-.02,8.22-.02,1.46-.05,1.45-1.41,1.45-3.25-.01-6.51-.02-9.76-.02-1.65,0-2.52,.95-2.39,2.58,.04,.48,.02,.96,.02,1.44,.01,29.14,.03,58.27,.04,87.41,0,2.19,.69,2.87,2.91,2.88,3.15,0,6.3,.04,9.45,0,.78,0,.99,.23,.98,.99-.04,3.18-.02,6.37-.02,9.55,0,1.8,1.02,2.81,2.85,2.82,2.91,.01,5.82,.04,8.73,.02,.72,0,1.02,.13,1.02,.95-.05,6.92-.06,13.83-.05,20.75,0,.88-.31,1.1-1.13,1.09-3.05-.04-6.09-.02-9.14-.02-2.13,0-3.06,.91-3.06,3.02,.01,7.83-.05,15.67,.06,23.5,.05,3.62-.04,7.25-.09,10.87-.03,2.04,1.02,3.06,3.07,3.08,2.94,.02,5.89,.04,8.83,.06q1.51,0,1.51,1.47c-.02,2.94-.04,5.89-.06,8.83-.01,2.13,1.04,3.2,3.17,3.21,3.96,0,7.92,0,11.88,0,5.54,0,11.08,0,16.62,.21h1.23c.21,0,.41,0,.62,0h3.9c2.47,0,4.93,0,7.4,0,1.44,0,2.87,0,4.31,0,2.54,0,5.07,0,7.61,0,1.92,0,3.83,0,5.75,0,3.63,.03,7.26-.35,10.89-.21,1.03,0,2.05,0,3.08,0,4.6,0,9.2,0,13.8,.01,.68,0,1.36-.02,2.03-.18,1.08-.58,1.98-1.24,1.89-2.69-.09-1.43-.05-2.86-.07-4.3,0-1.83,0-3.66-.01-5.49,0-.48,.01-.9,.66-.88,1.37-.01,2.74-.02,4.11-.03,2.19-.01,4.39,.12,6.58-.16,1.01-.11,2.06-1.32,2.07-2.49,.01-1.98-.03-3.97-.04-5.95,0-.71,.05-1.43,.01-2.14-.03-.58,.19-.77,.76-.76,1.19,.03,2.38,0,3.56,0,2.53,.05,5.07,.12,7.6-.04,1.71,.01,3.42,.03,5.14,.04,1.98,.02,3.97,.05,5.95,.04,1.17,0,2.38-1.06,2.49-2.07,.28-2.19,.15-4.38,.16-6.58,0-1.84,0-3.67,0-5.51,.08-.47,.22-.93,.22-1.4-.06-3.54,.36-7.06,.22-10.6,4.38,.02,8.76,.04,13.13,.07,.5,0,1.01-.02,1.19-.58,.19-.61,.4-1.26,.41-1.89,.04-3.9,.04-7.8,.04-11.7,0-5.1,0-10.19-.02-15.29,0-.44,.01-.81,.62-.82,.89-.01,1.77-.13,2.66-.14,3.18-.02,6.36-.02,9.54-.01,.49,0,.95,.07,.95-.68,.04-4.23,.11-8.47,.18-12.7,3.56,.01,7.12,.01,10.67,.05,.78,0,1.11-.23,1.11-1.05-.02-3.9-.02-7.8,.01-11.7,0-.65-.17-.89-.86-.88-3.63,.04-7.25,.02-10.88,.03Z"/>
  <path class="cls-8" d="M136.04,6.59c.96,0,1.92,0,2.88,0,.07,.5,.45,.56,.85,.61,.34,.46,.19,.99,.19,1.49,.02,3.21,.04,6.42,0,9.64,0,.8,.2,1.06,1.03,1.04,2.87-.05,5.74-.01,8.61,0,.04,.38,.36,.56,.63,.54,1.2-.1,2.26,.21,3.24,.87,.02,.61,.06,1.22,.06,1.83-.01,6.03-.03,12.06-.04,18.1-.88,.51-.88,2.21,0,2.88,0,.55,0,1.1,0,1.65-.56,.05-.6,.45-.6,.89,0,3.72-.04,7.44-.17,11.16-.14,4.11-.02,8.22,.14,12.34,.15,3.72-.08,7.44,.23,11.16,.03,.32-.12,.72,.38,.82,.01,4.23,.02,8.46,.03,12.69,0,1.38,0,1.32,1.38,1.31,3.79-.03,7.57,0,11.36,.01,.01,.26,.16,.37,.41,.37,0,3.55,0,7.1,0,10.66q0,2.84-2.88,2.64c-.03-.17,.06-.45-.21-.45-.26,0-.17,.28-.21,.45-2.88,0-5.75,0-8.63,.01,0-.36-.05-.71-.49-.74-.38-.02-.51,.26-.54,.59-.24,1.77-.55,3.54-.61,5.33-.21,.03-.4,.08-.37,.35,.02,.21,.2,.24,.36,.27,0,.17,.02,.34,.02,.51-.01,14.93-.02,29.86-.05,44.79,0,1.26-.21,2.52-.1,3.79-.3,.05-.68,.11-.58,.5,.09,.35,.39,.63,.77,.71,.42,.1,.72-.06,.78-.53,.44-.02,.88-.06,1.33-.04,1.56,.04,3.14,.25,4.68,.12,1.84-.15,3.67-.1,5.5-.08,.13,.48,.61,.88,.39,1.42-.31,.75-.18,1.54-.27,2.31-.07,.59-.26,1.46,.68,1.77-.01,2.19,.12,4.39-.16,6.58-.07,0-.16,0-.2,.03-1.68,1.68-3.69,1.58-5.85,1.28-.71-.1-1.86-.37-2.4,.72-1.71-.01-3.42-.03-5.14-.04,.02-.46-.21-.57-.64-.53-1.46,.14-2.92-.07-4.37-.16-.86-.05-1.96-.31-2.59,.72-1.19,0-2.38,.03-3.56,0-.57-.01-.79,.18-.76,.76,.03,.71,0,1.42-.01,2.14-.26,.02-.54,.13-.53,.39,.05,.85-.34,1.63-.19,2.52,.25,1.44,.51,2.94-.48,4.29-.29,.4-.83,.65-.84,1.24-2.19,.28-4.38,.15-6.58,.16-.61-1-3.38-.98-4.11,.03-.64-.02-.66,.4-.66,.88,.02,1.83,.01,3.66,.01,5.49-.94,.31-.76,1.18-.68,1.77,.24,1.76,.58,3.48-1.02,4.84-.08,.07-.08,.25-.12,.38-.67,.16-1.34,.18-2.03,.18-4.6-.01-9.2,0-13.8-.01-.66-1.06-2.42-1.05-3.08,0-3.64-.14-7.26,.24-10.89,.21-.04-.29-.23-.38-.5-.38-1.58,0-3.17,0-4.75,0-.27,0-.45,.1-.5,.38-2.54,0-5.07,0-7.61,0-.59-.56-3.72-.56-4.31,0-2.47,0-4.93,0-7.4,0-.03-.17-.11-.36-.29-.36-1.1-.01-2.21-.01-3.32,0-.19,0-.26,.18-.29,.36-.21,0-.41,0-.62,0-.41-.6-.82-.59-1.23,0-5.54-.22-11.08-.21-16.62-.21-3.96,0-7.92,0-11.88,0-2.13,0-3.18-1.07-3.17-3.21,.02-2.94,.04-5.89,.06-8.83q0-1.46-1.51-1.47c-2.94-.02-5.89-.04-8.83-.06-2.05-.02-3.09-1.04-3.07-3.08,.05-3.63,.15-7.26,.09-10.87-.11-7.84-.05-15.67-.06-23.5,0-2.11,.93-3.02,3.06-3.02,3.05,0,6.09-.02,9.14,.02,.82,.01,1.13-.21,1.13-1.09-.02-6.92,0-13.83,.05-20.75,0-.82-.3-.96-1.02-.95-2.91,.02-5.82,0-8.73-.02-1.83,0-2.85-1.01-2.85-2.82,0-3.18-.02-6.37,.02-9.55,0-.76-.2-1-.98-.99-3.15,.04-6.3,0-9.45,0-2.22,0-2.9-.68-2.91-2.88-.01-29.14-.03-58.27-.04-87.41,0-.48,.02-.96-.02-1.44-.12-1.63,.74-2.58,2.39-2.58,3.25,0,6.51,0,9.76,.02,1.36,0,1.39,.01,1.41-1.45,.03-2.74,.02-5.48,.02-8.22,0-.65,0-1.3,.03-1.95,.03-.79,.33-1.2,1.26-1.18,2.91,.06,5.82,.09,8.73,0,6.88-.21,13.76-.06,20.64-.17,.96-.01,1.33,.31,1.45,1.25,.18,1.4,.09,2.79,.07,4.19-.03,2.39,.07,4.78,.09,7.18,0,.65,.46,.56,.86,.56,2.77,0,5.55,.01,8.32,.02,2.14,0,3.2,1.07,3.19,3.19-.02,3.01,0,6.03-.08,9.04-.02,.87,.25,1.09,1.1,1.09,7.39-.08,14.78-.12,22.17-.17,.03,.17,.1,.3,.29,.37,1.48,.54,2.98-.14,4.47,.08,.22,.03,.56-.07,.58-.44q1.48-.04,1.47-1.5c0-1.77,0-3.55-.01-5.32,.57-.57,.56-1.51-.02-2.05-.01-.41,.05-.84-.04-1.23-.41-1.86,1.52-3.34,3.23-3.29,2.56,.08,5.13,.02,7.7,0,1.58-.01,1.43,.2,1.46-1.41,.05-3.32,.09-6.63,.15-9.95,.03-1.7,.16-1.8,1.81-1.8,4.89,.01,9.79-.07,14.68,.06,3.69,.1,7.39,.02,11.08,.13,.03,.17,.04,.35,.26,.38,.28,.04,.33-.17,.36-.38Zm-10.69,157.62c.01-.3,.02-.6-.4-.63-.15-.67-.19-1.35-.19-2.03,0-2.7-.03-5.4,0-8.09,0-.74-.16-1.04-.96-1-1.05,.06-2.12,0-3.17,0-.02-.26-.12-.52-.39-.53-.91-.05-1.77-.35-2.72-.18-1.44,.25-2.94,.51-4.29-.47-.4-.29-.65-.83-1.24-.84-.33-2.12-.13-4.25-.16-6.37,.12-.04,.29-.05,.37-.14,.49-.59,.43-3.05-.1-3.64-.11-.12-.24,.02-.32,.13-.81-.02-1.62-.04-2.44-.06-.6-.65-2.55-.88-3.15-.36-.09,.08-.09,.25-.13,.38-.68,0-1.37,0-2.05,0-.56-.8-1.82-.9-2.47-.21,0,.06,0,.13,0,.19-.34,0-.68,0-1.02-.01,0-.06,0-.12,0-.18-.67-1.67-.35-3.43-.4-5.15,.11-.07,.3-.11,.33-.2,.43-1.37,.14-2.75,0-4.12,0-.08-.21-.13-.33-.19,0-1.58,0-3.15-.01-4.73,.43,.02,.78-.06,.83-.59,.21,0,.41,0,.62,0,.02,.13,.04,.29,.2,.29,.17,0,.18-.16,.2-.29,2.67,.02,5.34,.03,8.01,.05-.02,.86,.72,.9,1.22,.91,2.15,.06,4.3,.07,6.44-.02,.46-.02,1.25,.09,1.38-.75,1.64-.01,3.29-.02,4.93-.03,.62,.24,1.14,.03,1.56-.43,.43-.46,.4-.82-.27-1,0-.41,.02-.82,.03-1.23,.96-.04,.94-.86,.91-1.41-.05-.92,.5-2.04-.66-2.69-.03-.01-.07,0-.1,0,.02-1.1,.04-2.19,.06-3.29,.92-.02,.88-.78,.92-1.33,.05-.71,.1-1.42,.23-2.12,3.63,0,7.26,0,10.89-.01,.25,.64,.71,.45,1.07,.2,.5-.35,.85-.82,.37-1.46,0-6.03,.01-12.05,.02-18.08,.06,0,.12,0,.18,0,.49,.32,.53-.05,.62-.39,.38-1.36,.15-2.75,.19-4.13,.01-.48-.32-.62-.75-.61,0-6.03-.02-12.06-.03-18.08,.31-.03,.35-.25,.4-.5,.38-2.03,.16-4.07,.12-6.11,0-.27-.04-.72-.52-.78,.01-3.43,.02-6.85,.03-10.28,.56-.12,.75-.49,.77-1.03,.04-1.01,0-2.03,.07-3.04,.03-.5,.34-1.45-.67-1.68,0-.55,.01-1.1,.02-1.65,.42-.05,.75-.32,.75-.71,0-1.75,.23-3.5,0-5.24-.05-.4-.3-.68-.77-.63-.07-.07-.14-.14-.21-.2,.03-3.08,.05-6.16,.08-9.25,.45,.01,.66-.19,.75-.65,.28-1.45,.3-2.89,0-4.34-.24-1.22-1.06-2.01-2.2-2.16-.3-.04-.46,.04-.49,.34-1.44,0-2.88,0-4.32,0-.04-.42-.3-.55-.69-.6-3.16-.42-6.33-.13-9.49-.15-.47,0-1.16,.09-1.12,.9l-9.66,.06c-.04-.42-.29-.56-.69-.59-1.04-.08-1.58,.52-1.54,1.74,.01,.1,.03,.19,.04,.29-.84,.6-.78,1.45-.57,2.29,.12,.49-.11,1.29,.84,1.24,.01,.55,.03,1.1,.04,1.64-.7-.08-.6,.52-.7,.89-.28,1.01,.18,2.19,.87,2.4,.01,.55,.02,1.1,.04,1.64-.77,.24-1.13,.8-1.2,1.58-2.19,.02-4.38,.03-6.57,.05-.48,0-.96-.04-1.39,.24-1.13,.29-1.28,1.2-1.28,2.14-.01,3.64,0,7.29,0,10.93-4.31,.01-8.63,.16-12.93,0-4.1-.16-8.21-.19-12.3-.07-4.62,.14-9.23,.08-13.84,.07-.02-.06-.07-.13-.07-.19,.19-3.67,.07-7.34,.05-11,0-.77-.1-1.75-1.25-1.87-.48-.2-.98-.25-1.5-.25-1.95,.02-3.9,0-5.85,0-1.63,0-1.89-.24-1.84-1.81,.11-3.17,.27-6.34,.39-9.52,.04-1.2-.5-1.75-1.7-1.8-.51-.02-1.03,0-1.54,0-4.14-.01-8.28,.09-12.42-.07-3.66-.13-7.31-.09-10.97-.14-1.65-.02-2.57,.94-2.57,2.58,0,4.48,.01,8.96,.02,13.44-.56,.72-.46,1.57-.37,2.37,.4,3.44,.26,6.89,.3,10.33,.14,13.23,.06,26.47,.06,39.71,0,.37,.03,.77-.07,1.12-.16,.58-.05,1.07,.27,1.54,0,5.68,0,11.36,0,17.03,0,1.65,.62,2.28,2.29,2.29,3.25,0,6.5,.02,9.75-.01,.82,0,1.19,.38,1.36,1.08,.09,.36,.15,.74,.15,1.11,.02,3.14,.06,6.29,.22,9.43,.06,1.28,.6,1.95,1.86,1.95,3.21,.01,6.43-.05,9.64-.07,.65,.02,1.29,.08,1.94,.07,3.88-.04,7.76-.09,11.64-.13,.46,.8,0,1.6,0,2.4,.03,3.51,0,7.03,.02,10.54,0,.75-.13,1.41-.62,1.99,0,.07,0,.13,0,.2-3.49,0-6.98,.04-10.47,0-.82,0-1.04,.24-1.03,1.04,.03,2.74,0,5.48-.03,8.21-.02,1.83-1.1,2.89-2.94,2.89-2.98,0-5.96,0-8.93-.04-.76-.01-1.09,.13-1.07,1,.06,2.15-.1,4.32,.04,6.47,.14,2.08-.7,4.14-.02,6.21,.02,.06,0,.14,0,.2,.09,4.21-.13,8.41-.02,12.62,.08,2.74,.03,5.48-.02,8.21-.01,.79,.19,1.06,1.02,1.05,3.92-.04,7.84-.02,11.76-.02,3.35,0,6.71-.01,10.06,.05,.86,.02,1.02-.27,1.02-1.05-.05-5.16,.05-10.33,.19-15.49,.04-1.56,.25-1.69,1.78-1.65,1.91,.04,3.83,.03,5.74,.05,2.77,.03,2.76,0,2.78,2.82,.05,4.79-.11,9.58,.16,14.36,.03,.5-.03,.93,.71,.94,1.8,.02,3.59,.14,5.39,.16,3.25,.03,6.5,.02,9.75,.03,.26,.28,.47,.28,.61-.11,1.1,.25,2.19-.17,3.29-.06,.02,.13,.04,.28,.2,.28,.16,0,.18-.15,.2-.28,.76,0,.61-.57,.61-1.03,.02-4.6-.02-9.21,.2-13.81,.71-.06,.61-.6,.62-1.07,.02-.92,.16-1.71,1.4-1.65,.29,.01,.79-.03,.86-.55,2.19,0,4.38,.01,6.58,.02,0,.47-.04,.95,.63,1,.28,.81,.21,1.64,.18,2.47-.21,.02-.44,.08-.5,.29-.43,1.46-.06,2.92,.02,4.37,.01,.2,.29,.25,.5,.27,.09,2.88,.3,5.75,.18,8.63-.38,.04-.49,.34-.56,.63-.07,.31,.15,.51,.38,.67,.26,.17,.36,0,.4-.23,1.44,0,2.88-.01,4.32-.02,.02,.31,.17,.55,.48,.56,.93,.04,1.83,.27,2.81,.12,1.09-.17,2.25-.45,3.38,.03,.48,.2,.88,.05,.91-.57,1.57-.34,3.16-.12,4.74-.15,.04,.42,.32,.51,.69,.6,1.89,.49,3.77-.32,5.65-.05,.16,.02,.33-.12,.35-.31,.02-.25-.19-.23-.35-.28,.01-3.1,.02-6.2,.04-9.29,0-.4-.11-.82,.14-1.19,.48-.04,.61-.23,.24-.61-.08-.36-.2-.72-.23-1.09-.3-3.47-.13-6.94-.11-10.41,1.06-.55,1.2-.9,.55-1.43h0Zm12.74-26.72v-5.55c.42-.03,.61-.26,.62-.67,.01-.44-.13-.74-.61-.77,0-.34,0-.68,0-1.03,1-.21,.51-1,.6-1.56,.07-.46-.02-.89-.65-.9-1.56-.01-3.12-.03-4.69-.04-.02-.25-.12-.48-.38-.54-1.53-.35-3.06-.09-4.59,.02-.26,.02-.34,.29-.36,.55-.19,.02-.39,.04-.58,.05-.43-.41-.59-.07-.63,.28-.05,.46-.03,.94,.56,1.11,.05,3.84,.11,7.68-.17,11.51-.78,.09-.62,.7-.61,1.18,.01,.5-.25,1.16,.6,1.29,0,.34,0,.68,0,1.03-.49,.03-.63,.33-.61,.77,.01,.41,.2,.64,.62,.67,0,1.43,.03,2.87,.02,4.3,0,.43-.02,.85,.59,.83,.64,.91,2.17,.91,2.67,0,.34,0,.68,0,1.03,0,.03,.49,.33,.63,.77,.61,.41-.01,.64-.2,.67-.62,1.43,0,2.86-.05,4.3-.02,.62,.01,.84-.19,.82-.82-.03-1.29,0-2.59,.02-3.89,.42-.03,.6-.26,.62-.67,.01-.44-.13-.74-.61-.77,0-.34,0-.68,0-1.03,1.16-.49,.56-1.45,.5-2.18-.05-.56-.21-1.04,.01-1.63,.2-.54,.13-1.19-.51-1.54Zm6.75-23.22c1.13,0,2.25,.01,3.38,0,.36,0,.87-.01,.85-.49-.02-.4-.46-.54-.88-.53-.24,0-.48,.03-.72,0-1.01-.15-2.03,.24-2.99,.12-.98-.12-1.94,.29-2.91-.09-.27-.11-.74,.08-.76,.5-.01,.45,.38,.5,.74,.5,1.09,0,2.19,0,3.28,0Zm15.42,61.84c-.59,.07-1.19,.15-1.8,.22-.18,.02-.35,.06-.37,.27-.03,.28,.19,.31,.4,.34,.6,.07,1.2,.17,1.81,.2,.39,.02,.94,.1,.96-.47,.03-.67-.57-.51-1-.56Zm-19.29-19.7c0-.38-.02-.8-.53-.8-.44,0-.52,.37-.49,.73,.03,.36,.07,.81,.55,.81,.44,0,.47-.4,.47-.75Zm-18.11-6.33c-.09-.43-.42-.49-.78-.46-.34,.03-.8,.1-.77,.49,.04,.51,.54,.52,.95,.51,.34,0,.58-.16,.59-.55Zm14.82,4.49c0-.37-.17-.59-.54-.63-.4-.03-.58,.24-.6,.56-.02,.35,.25,.57,.57,.62,.39,.06,.54-.2,.57-.54Zm-29.4,36.04c-.03-.29-.2-.48-.51-.5-.34-.03-.63,.09-.66,.47-.03,.33,.19,.5,.5,.52,.34,.03,.6-.09,.67-.49Zm-3.07,9.61c0-.34-.17-.49-.5-.45-.3,.04-.5,.21-.47,.53,.03,.32,.25,.45,.56,.46,.37,0,.44-.24,.42-.54Zm-7.45-175.07c-.29,0-.35,.19-.34,.4,0,.25-.12,.59,.22,.69,.34,.1,.38-.19,.38-.43,0-.25,.09-.56-.25-.67Zm44.23,129.17c.24,0,.38-.1,.4-.35,0-.23-.08-.4-.33-.42-.28-.03-.45,.1-.45,.4,0,.24,.14,.37,.38,.37Zm-34.33,38.51c-.27,.08-.39,.26-.35,.52,.03,.21,.16,.39,.4,.36,.27-.04,.39-.25,.35-.51-.03-.22-.16-.36-.4-.37Zm26.67-4.78c0-.19-.12-.32-.28-.35-.22-.04-.38,.09-.41,.32-.03,.19,.11,.32,.27,.35,.22,.04,.37-.09,.41-.32Zm-20.04-47.7c.12-.03,.3-.03,.26-.22-.03-.15-.19-.18-.32-.16-.13,.02-.3,.02-.26,.22,.03,.15,.19,.16,.32,.16Zm32.17-24.62c.12,.16,.17,.23,.22,.3,.07-.05,.17-.09,.19-.15,.04-.13,.01-.27-.17-.26-.08,0-.16,.07-.25,.12Zm-2.28,61.68c-.02-.06-.03-.15-.07-.16-.04-.02-.11,.04-.17,.06,.02,.06,.03,.15,.07,.16,.04,.02,.11-.04,.17-.06Zm-28.54-37.37c-.02,.06-.05,.11-.07,.17,.06,.02,.13,.08,.17,.06,.04-.02,.05-.1,.08-.16-.06-.02-.11-.05-.17-.07Z"/>
  <path class="cls-1" d="M152.95,164.18c-.1-1.27,.1-2.53,.1-3.79,.04-14.93,.04-29.86,.05-44.79,0-.17-.01-.34-.02-.51,0-.21,0-.41,.01-.62,.06-1.79,.38-3.56,.61-5.33,.32,.18,.67,.22,1.03,.15,2.88,0,5.75,0,8.63-.01,.14,0,.27,0,.41,0q2.88,.21,2.88-2.64c0-3.55,0-7.1,0-10.66,.3-.19,.63-.22,.98-.22,4.26,.01,8.52,.02,12.79,.02,0,4.38,0,8.76,0,13.14-4.3,0-8.6,.01-12.9,0-.48,0-.64,.22-.78,.61-.27,.74-.1,1.48-.11,2.22-.09,8.65,.17,17.3-.12,25.95-.16,4.72-.04,9.44-.05,14.16,0,.35,0,.68,.21,.98,.13,3.54-.28,7.06-.22,10.6,0,.47-.14,.93-.22,1.4-.27,0-.53,.01-.8,.02-1.83-.02-3.66-.07-5.5,.08-1.55,.13-3.12-.08-4.68-.12-.44-.01-.88,.03-1.33,.04-.44-.06-.67-.42-.97-.69Z"/>
  <path class="cls-8" d="M166.67,152.85c-.2-.3-.21-.64-.21-.98,.01-4.72-.11-9.45,.05-14.16,.29-8.65,.03-17.3,.12-25.95,0-.74-.16-1.49,.11-2.22,.14-.39,.3-.61,.78-.61,4.3,.02,8.6,0,12.9,0,4.21,0,8.42,0,12.62,0,.75,0,1.5-.04,2.23,.21l.09-.02c-.06,4.23-.14,8.47-.18,12.7,0,.76-.46,.68-.95,.68-3.18,0-6.36,0-9.54,.01-.89,0-1.77,.12-2.66,.14-.61,0-.63,.37-.62,.82,.01,5.1,.02,10.19,.02,15.29,0,3.9,0,7.8-.04,11.7,0,.63-.22,1.28-.41,1.89-.17,.56-.68,.59-1.19,.58-4.38-.03-8.76-.05-13.13-.07Z"/>
  <path class="cls-8" d="M180.42,95.78c-4.26,0-8.52-.01-12.79-.02-.35,0-.68,.03-.98,.22-.25,0-.39-.12-.41-.37,.63-.08,.59-.55,.58-1.01-.08-3.76,.19-7.52-.14-11.28-.08-.89,.3-1.27,1.15-1.27,8.21,0,16.41,0,24.62,0,.27,0,.55-.01,.82-.02,1.91-.03,2.45-.1,2.25,2.27-.31,3.74-.11,7.52-.12,11.29,0,0,.01-.01,.01-.01-5,.02-10.01-.06-15.01,.22Z"/>
  <path class="cls-8" d="M195.37,109.12s-.09,.02-.09,.02c-.21-4.53,.11-9.05,.15-13.58,0,0-.01,.01-.01,.01,3.63,0,7.25,.01,10.88-.03,.7,0,.87,.23,.86,.88-.03,3.9-.03,7.8-.01,11.7,0,.82-.33,1.06-1.11,1.05-3.56-.04-7.12-.04-10.67-.05Z"/>
  <path class="cls-8" d="M153.48,81.59c-.5-.09-.36-.5-.38-.82-.31-3.72-.09-7.44-.23-11.16-.16-4.11-.29-8.23-.14-12.34,.13-3.72,.16-7.44,.17-11.16,0-.44,.04-.84,.6-.89,0,9.32,.02,18.65,.02,27.97,0,2.8-.02,5.6-.03,8.4Z"/>
  <path class="cls-8" d="M138.51,190.31c0-.59,.55-.84,.84-1.24,.98-1.35,.73-2.85,.48-4.29-.15-.89,.23-1.67,.19-2.52-.01-.25,.27-.37,.53-.39,.02,1.98,.05,3.97,.04,5.95,0,1.17-1.06,2.38-2.07,2.49Z"/>
  <path class="cls-8" d="M157.62,178.96c.53-1.09,1.69-.82,2.4-.72,2.16,.3,4.17,.41,5.85-1.28,.04-.04,.13-.02,.2-.03-.11,1.01-1.32,2.06-2.49,2.07-1.98,.01-3.97-.03-5.95-.04Z"/>
  <path class="cls-8" d="M144.88,178.96c.63-1.03,1.73-.78,2.59-.72,1.46,.09,2.91,.3,4.37,.16,.43-.04,.66,.07,.64,.53-2.53,.16-5.07,.08-7.6,.04Z"/>
  <path class="cls-8" d="M125.36,203.85c.04-.13,.03-.31,.12-.38,1.6-1.36,1.27-3.07,1.02-4.84-.08-.59-.26-1.46,.68-1.77,.02,1.43-.01,2.87,.07,4.3,.09,1.44-.82,2.11-1.89,2.69Z"/>
  <path class="cls-8" d="M165.43,164.87c.27,0,.53-.01,.8-.02,0,1.84,0,3.67,0,5.51-.94-.31-.75-1.18-.68-1.77,.09-.76-.04-1.56,.27-2.31,.22-.54-.26-.94-.39-1.42Z"/>
  <path class="cls-8" d="M93.92,32.93c-.02,.37-.36,.47-.58,.44-1.49-.22-2.99,.46-4.47-.08-.19-.07-.26-.19-.29-.37,1.78,0,3.56,0,5.34,.01Z"/>
  <path class="cls-8" d="M127.83,190.5c.73-1.01,3.5-1.04,4.11-.03-1.37,.01-2.74,.02-4.11,.03Z"/>
  <path class="cls-8" d="M89.81,204.24c.04-.29,.23-.38,.5-.38,1.58,0,3.17,0,4.75,0,.27,0,.46,.1,.5,.38-1.92,0-3.83,0-5.75,0Z"/>
  <path class="cls-8" d="M153.47,20.77c-.98-.66-2.04-.97-3.24-.87-.27,.02-.59-.16-.63-.54,1.09,.03,2.25-.35,3.22,.53,.28,.26,.56,.49,.65,.88Z"/>
  <path class="cls-8" d="M106.46,204.02c.66-1.06,2.42-1.06,3.08,0-1.03,0-2.05,0-3.08,0Z"/>
  <path class="cls-8" d="M77.9,204.24c.59-.56,3.72-.56,4.31,0-1.44,0-2.87,0-4.31,0Z"/>
  <path class="cls-8" d="M153.49,43.58c-.88-.67-.88-2.37,0-2.88,0,.96,0,1.92,0,2.88Z"/>
  <path class="cls-8" d="M66.6,204.24c.03-.17,.11-.36,.29-.36,1.1-.01,2.21-.01,3.32,0,.19,0,.26,.19,.29,.36-1.3,0-2.6,0-3.9,0Z"/>
  <path class="cls-8" d="M95.36,24.06c.58,.54,.58,1.48,.02,2.05,0-.68-.01-1.37-.02-2.05Z"/>
  <path class="cls-8" d="M64.75,204.24c.41-.59,.82-.59,1.23,0-.41,0-.82,0-1.23,0Z"/>
  <path class="cls-8" d="M139.77,7.2c-.39-.05-.78-.11-.85-.61,.48-.08,.85,0,.85,.61Z"/>
  <path class="cls-8" d="M136.04,6.59c-.03,.21-.08,.41-.36,.38-.22-.03-.23-.21-.26-.38,.21,0,.41,0,.62,0Z"/>
  <path class="cls-1" d="M137.48,111.83c-3.63,0-7.26,0-10.89,.01-.75-.08-.9,.5-1.04,1.01-.22,.8-.22,1.62-.11,2.44-.02,1.1-.04,2.19-.06,3.29,.06,1.37-.34,2.73-.15,4.11,0,.41-.02,.82-.03,1.23-.11,.76-.75,1.05-1.29,1.43-1.64,.01-3.29,.02-4.93,.03-2.4-.09-4.8,.02-7.19-.21,.08-.06,.15-.17,.23-.19,1.88-.37,1.97-.55,2.04-2.49,.1-2.84-.27-5.66-.22-8.5,.03-1.53-.87-2.4-2.42-2.41-3.15,0-6.3-.02-9.45,.01-.67,0-.89-.2-.88-.88,.03-2.4,.03-4.79,0-7.19-.02-1.29,.12-2.59-.16-3.88-.15-.7-.45-.93-1.14-1.03-2.08-.32-4.16-.14-6.24-.17-1.47-.03-2.96-.1-4.4,.09-.86,.11-1-.06-1-.83,.02-3.46,.01-6.91,0-10.37,0-1.35-.71-2.05-2.08-2.05-3.87,0-7.73,.03-11.6-.02-.91-.01-1.36,.52-1.82,1.11-.22,.28-.11,.66-.11,1,0,3.46,0,6.91,0,10.37,0,.37,.16,.97-.52,.86-2.38-.36-4.78-.08-7.16-.16-1.36-.04-2.73-.05-4.08,.18-.5,.08-.88,.25-.94,.76-.08,.61-.25,1.19-.24,1.82,.03,3.08-.02,6.16,.03,9.24,.02,.89-.21,1.18-1.13,1.16-3.11-.06-6.23-.03-9.34-.02-1.16,0-2.29,.98-2.28,2,.04,3.25-.34,6.48-.22,9.73,.02,.69,.03,1.35,.4,1.95-3.21,.03-6.43,.09-9.64,.07-1.26,0-1.8-.68-1.86-1.95-.16-3.14-.2-6.28-.22-9.43,0-.37-.06-.75-.15-1.11-.17-.7-.54-1.09-1.36-1.08-3.25,.04-6.5,.02-9.75,.01-1.66,0-2.29-.63-2.29-2.29,0-5.68,0-11.36,0-17.03,.19,.07,.38,.18,.58,.19,3.49,.17,6.97-.11,10.45-.25,1.87-.07,2.32-.91,1.98-2.82-.04-.23-.04-.48-.04-.72,0-2.98,.02-5.96-.02-8.93-.01-.81,.21-1.08,1.04-1.04,2.93,.16,5.87,.28,8.81,.22,1.96-.04,2.91-.95,2.91-2.87,0-6.54,0-13.08,0-19.61,0-1.33,.29-2.64,.2-3.98-.11-1.66-.71-2.33-2.34-2.29-3.08,.07-6.14-.36-9.22-.22-.2,0-.41,0-.61-.05-.52-.1-.79-.34-.8-.97-.05-3.45,.17-6.9-.16-10.35-.14-1.44-.36-1.78-1.85-1.78-2.98,0-5.96,0-8.93,0-.77,0-1.49,.14-2.19,.42,0-4.48-.01-8.96-.02-13.44,0-1.64,.92-2.61,2.57-2.58,3.66,.05,7.31,0,10.97,.14,4.13,.15,8.28,.05,12.42,.07,.51,0,1.03,0,1.54,0,1.2,.04,1.74,.59,1.7,1.8-.12,3.17-.27,6.34-.39,9.52-.06,1.58,.21,1.81,1.84,1.81,1.95,0,3.9,0,5.85,0,.52,0,1.02,.05,1.5,.25,.2,.57,.71,.99,.71,1.67,.01,1.36,.11,2.73,.13,4.09,.03,2.15,0,4.31,.03,6.46,0,.31-.26,.82,.4,.85,4.61,0,9.22,.07,13.84-.07,4.09-.12,8.2-.09,12.3,.07,4.3,.16,8.62,.02,12.93,0,.65-.04,.39-.55,.4-.85,.03-2.67-.05-5.33,.06-8,.06-1.43-.19-2.96,.82-4.22,.43-.28,.91-.24,1.39-.24,2.19-.02,4.38-.03,6.57-.04,1.03-.13,1.27-.44,1.2-1.58-.01-.55-.02-1.1-.04-1.64,.17-1.11-.11-2.19-.17-3.29-.01-.55-.03-1.1-.04-1.64,.12-1.19-.02-2.36-.27-3.53-.01-.1-.03-.19-.04-.29,.56-.75,1.25-1.23,2.23-1.14,3.22-.02,6.44-.04,9.66-.06,3.77,.2,7.53-.2,11.3-.15,1.44,0,2.88,0,4.32,0,1.41,.58,2.1,1.52,1.91,3.15-.14,1.2,0,2.44,.03,3.66-.03,3.08-.05,6.16-.08,9.25-.49-.14-.98-.38-1.47-.39-3.39-.04-6.78-.04-10.17,0-.68,0-1.32,.31-1.3,1.15,.02,1.37-.28,2.71-.23,4.08,.07,2.19-.04,4.38,.04,6.57,.04,1.04-.42,1.36-1.31,1.32-3.01-.13-6,.28-9.01,.22-2.03-.04-2.66,.59-2.64,2.6,.02,1.53,.18,3.06,.18,4.6,.02,6.23,.01,12.46,.01,18.69,0,1.93,.95,2.83,2.91,2.88,2.97,.07,5.94-.12,8.91-.22,.72-.03,.95,.22,.93,.94-.04,1.61,0,3.22-.02,4.83,0,1.64,.11,3.3-.07,4.92-.22,2.01,.28,2.84,2.31,2.87,3.21,.04,6.41,.37,9.63,.23,.38-.02,.75-.03,1.09-.21,0,6.03-.01,12.05-.02,18.08-.38,.53-.79,1.03-1.44,1.26Zm-77.84-18.74s0,0,0,0c1.1,0,2.19,.02,3.29,0,.56-.01,1.16-.12,1.18-.85,.08-2.35,.11-4.71,.12-7.06,0-2.31-.2-4.63,.07-6.94,.09-.76-.3-1.3-1.01-1.24-2.26,.2-4.51,.04-6.76,.1-.48,.01-.98,.16-1,.67-.04,.95-.38,1.9-.18,2.85,.28,1.35,.14,2.71,.09,4.05-.1,2.47,.06,4.94,.04,7.4,0,.74,.39,1.04,1.09,1.03,1.03-.01,2.05,0,3.08,0Zm41.09-.21s0,0,0,0c1.1,0,2.19,.02,3.29,0,.56-.01,1.16-.12,1.18-.85,.08-2.35,.11-4.71,.12-7.06,0-2.31-.2-4.63,.07-6.94,.09-.76-.3-1.3-1.01-1.24-2.26,.2-4.51,.04-6.76,.1-.48,.01-.98,.16-1,.67-.04,.95-.37,1.9-.18,2.85,.28,1.35,.14,2.71,.09,4.05-.1,2.47,.06,4.94,.04,7.4,0,.74,.38,1.04,1.09,1.03,1.03-.01,2.05,0,3.08,0Z"/>
  <path class="cls-1" d="M101.5,187.21c.12-2.88-.09-5.75-.18-8.63,0-1.64-.02-3.29-.02-4.93,.03-.83,.1-1.66-.18-2.47,.09-.52-.07-.88-.63-1-2.19,0-4.38-.01-6.58-.02-.38,0-.76,.02-1.13-.03-1.07-.15-1.72,.15-1.7,1.36,.01,.65-.04,1.3-.06,1.94-.22,4.6-.18,9.21-.2,13.81,0,.46,.15,1.02-.61,1.03-.14,0-.27,0-.41,0-1.1-.12-2.19,.31-3.29,.05-.22-.08-.44-.12-.61,.11-3.25,0-6.5,0-9.75-.03-1.8-.02-3.59-.15-5.39-.16-.75,0-.69-.44-.71-.94-.27-4.79-.11-9.58-.16-14.36-.03-2.81-.01-2.79-2.78-2.82-1.91-.02-3.83-.01-5.74-.05-1.53-.04-1.74,.09-1.78,1.65-.14,5.16-.24,10.33-.19,15.49,0,.77-.16,1.06-1.02,1.05-3.35-.07-6.71-.05-10.06-.05-3.92,0-7.84-.02-11.76,.02-.83,0-1.04-.26-1.02-1.05,.05-2.74,.09-5.48,.02-8.21-.12-4.21,.1-8.42,.02-12.62,0-.07,.02-.14,0-.2-.68-2.07,.17-4.13,.02-6.21-.15-2.15,.02-4.31-.04-6.47-.03-.87,.31-1.01,1.07-1,2.98,.04,5.96,.04,8.93,.04,1.84,0,2.92-1.06,2.94-2.89,.03-2.74,.06-5.48,.03-8.21,0-.8,.21-1.05,1.03-1.04,3.49,.04,6.98,0,10.47,0,5.34,.01,10.68,.03,16.02,.04-.06,.12-.15,.24-.16,.37-.24,2.41,.02,4.82-.02,7.23-.01,.56,.49,.77,.94,.72,2.18-.23,4.36-.05,6.54-.09,.84-.02,1.16-.4,1.14-1.2-.03-.82-.01-1.64-.01-2.46,0-1.53,0-3.05,0-4.58,5.35-.02,10.69-.03,16.04-.05,.34,0,.68,0,1.02,.01,.55,0,1.09,0,1.64,0,.28,0,.55,.01,.83,.02,.68,0,1.37,0,2.05,0,1.1,0,2.19-.01,3.29-.02,.81,.02,1.62,.04,2.44,.06,.02,1.22,.04,2.44,.06,3.65,.04,2.12-.16,4.25,.16,6.37,.1,1.02,1.31,2.06,2.49,2.07,2.05,.01,4.1-.02,6.16-.04,1.06,0,2.12,.06,3.17,0,.8-.05,.97,.25,.96,1-.04,2.7,0,5.4,0,8.09,0,.69,.04,1.36,.19,2.03,0,.3,.13,.51,.4,.63,0,0,0,0,0,0,0,.54-.66,.84-.55,1.43-.02,3.47-.18,6.94,.11,10.41,.03,.37,.15,.73,.23,1.09-.23,.14-.21,.39-.24,.61-.26,.37-.14,.79-.14,1.19-.02,3.1-.03,6.2-.04,9.29-2.11,.01-4.23,.02-6.34,.04-1.58,.03-3.17-.19-4.74,.15-2.52-.36-5.06-.15-7.59-.15-1.44,0-2.88,.01-4.32,.02-.32-.31-.13-.72-.22-1.07Z"/>
  <path class="cls-3" d="M47.05,125.28c-.37-.6-.37-1.27-.4-1.95-.12-3.25,.26-6.48,.22-9.73-.01-1.02,1.12-2,2.28-2,3.11,0,6.23-.04,9.34,.02,.93,.02,1.15-.27,1.13-1.16-.05-3.08,0-6.16-.03-9.24,0-.63,.16-1.21,.24-1.82,.07-.51,.44-.68,.94-.76,1.36-.23,2.72-.22,4.08-.18,2.39,.07,4.78-.21,7.16,.16,.68,.1,.52-.49,.52-.86,.01-3.46,0-6.91,0-10.37,0-.34-.11-.72,.11-1,.46-.59,.91-1.12,1.82-1.11,3.87,.05,7.73,.02,11.6,.02,1.37,0,2.08,.7,2.08,2.05,0,3.46,.01,6.91,0,10.37,0,.77,.14,.94,1,.83,1.45-.18,2.94-.11,4.4-.09,2.08,.04,4.16-.14,6.24,.17,.69,.11,.99,.33,1.14,1.03,.28,1.29,.15,2.59,.16,3.88,.03,2.4,.03,4.79,0,7.19,0,.67,.22,.89,.88,.88,3.15-.03,6.3-.02,9.45-.01,1.55,0,2.45,.88,2.42,2.41-.05,2.84,.32,5.66,.22,8.5-.07,1.94-.16,2.12-2.04,2.49-.09,.02-.16,.12-.23,.19-.61,.34-1.24-.22-1.85,.06-2.67-.02-5.34-.03-8.01-.05-.14,0-.27,0-.41,0-.21,0-.41,0-.62,0-.27,0-.54,0-.81,0-.17,0-.34-.02-.51-.02-12.78,0-25.56,0-38.35,.02-.2,0-.41,.03-.61,.05-3.88,.05-7.76,.09-11.64,.13-.65,0-1.29-.04-1.94-.07Zm33.35-25s0,.01,0,.02c-1.13,0-2.26-.02-3.38,0-.61,.02-1.12,.18-1.19,.97-.19,2.23,.29,4.45,.02,6.68-.08,.66,.44,.97,.99,.9,2.11-.28,4.23-.08,6.34-.11,.99-.01,1.31-.4,1.31-1.36,0-2.05-.13-4.09,.09-6.14,.07-.66-.31-.99-1-.98-1.06,.02-2.12,0-3.18,0Z"/>
  <path class="cls-3" d="M21.58,37.42c.7-.28,1.43-.42,2.19-.42,2.98,.02,5.96,0,8.93,0,1.49,0,1.71,.34,1.85,1.78,.33,3.45,.12,6.9,.16,10.35,0,.62,.27,.86,.8,.97,.2,.04,.41,.06,.61,.05,3.08-.14,6.14,.29,9.22,.22,1.63-.04,2.24,.63,2.34,2.29,.09,1.34-.2,2.65-.2,3.98,0,6.54,0,13.08,0,19.61,0,1.93-.95,2.84-2.91,2.87-2.94,.05-5.87-.06-8.81-.22-.82-.04-1.05,.23-1.04,1.04,.04,2.98,.02,5.96,.02,8.93,0,.24,0,.48,.04,.72,.34,1.91-.11,2.75-1.98,2.82-3.48,.14-6.96,.42-10.45,.25-.2,0-.39-.13-.58-.19-.33-.47-.44-.96-.27-1.54,.1-.35,.07-.74,.07-1.12,0-13.24,.09-26.47-.06-39.71-.04-3.44,.1-6.89-.3-10.33-.09-.79-.19-1.65,.37-2.37Z"/>
  <path class="cls-3" d="M138.94,92.48c-.34,.18-.71,.2-1.09,.21-3.21,.14-6.42-.19-9.63-.23-2.04-.02-2.53-.86-2.31-2.87,.18-1.62,.06-3.28,.07-4.92,0-1.61-.03-3.22,.02-4.83,.02-.71-.21-.96-.93-.94-2.97,.1-5.93,.3-8.91,.22-1.96-.05-2.91-.95-2.91-2.88,0-6.23,.01-12.46-.01-18.69,0-1.53-.16-3.06-.18-4.6-.02-2.01,.61-2.64,2.64-2.6,3.01,.06,6-.35,9.01-.22,.89,.04,1.35-.28,1.31-1.32-.08-2.19,.03-4.38-.04-6.57-.04-1.37,.25-2.72,.23-4.08-.01-.83,.62-1.14,1.3-1.15,3.39-.03,6.78-.03,10.17,0,.49,0,.98,.25,1.47,.39,.07,.07,.14,.14,.21,.2,.26,.76,.28,1.55,.15,2.31-.24,1.42-.13,2.84-.13,4.26,0,.55-.01,1.1-.02,1.65,.08,1.92-.35,3.83-.17,5.75-.01,3.43-.02,6.85-.03,10.28,0,2.46,0,4.93,0,7.39,0,6.03,.02,12.06,.03,18.08-.21,1.71,.18,3.42-.06,5.13-.06,0-.12,.01-.18,0Z"/>
  <path class="cls-10" d="M60.63,125.22c.2-.02,.41-.05,.61-.05,12.78,0,25.56-.01,38.35-.02,.17,0,.34,.02,.51,.02,0,.2-.01,.39-.02,.59,0,1.58,0,3.15,.01,4.73,0,1.51,0,3.01,0,4.52,.06,1.72-.27,3.47,.4,5.15-13.49,0-26.99,0-40.48-.01,.49-.57,.63-1.23,.62-1.99-.03-3.51,0-7.03-.02-10.54,0-.8,.46-1.6,0-2.4Z"/>
  <path class="cls-4" d="M138.1,145.29c0,1.3-.05,2.59-.02,3.89,.01,.63-.2,.83-.82,.82-1.43-.03-2.86,0-4.3,.02-.48,0-.96,0-1.44,0-.34,0-.68,0-1.03,0-.89,0-1.78,0-2.67,0-.61,.02-.59-.4-.59-.83,0-1.43-.02-2.87-.02-4.3,0-.48,0-.96,0-1.44,0-.34,0-.68,0-1.03,0-.82,0-1.64,0-2.47,.29-3.83,.22-7.67,.17-11.51,.02-.46,.04-.92,.06-1.39,.19-.02,.39-.04,.58-.05,1.78,0,3.56-.02,5.34-.03,1.56,.01,3.12,.03,4.69,.04,.01,.82,.03,1.63,.04,2.45,0,.34,0,.68,0,1.03,0,.48,0,.96,0,1.44,0,1.85,0,3.7,0,5.55,0,1.78,0,3.56,0,5.34,0,.34,0,.68,0,1.03,0,.48,0,.96,0,1.44Z"/>
  <path class="cls-8" d="M132.96,21.36c-3.77-.06-7.53,.35-11.3,.15-.04-.81,.66-.9,1.12-.9,3.16,.02,6.33-.27,9.49,.15,.39,.05,.65,.18,.69,.6Z"/>
  <path class="cls-7" d="M60.02,140.15c13.49,0,26.99,0,40.48,.01,0,.06,0,.12,0,.18-5.35,.02-10.69,.03-16.04,.05-2.81,0-5.62,0-8.42,0-5.34-.01-10.68-.03-16.02-.04,0-.07,0-.13,0-.2Z"/>
  <path class="cls-8" d="M144.85,114.26c-1.09,0-2.19,0-3.28,0-.36,0-.76-.05-.74-.5,.01-.42,.48-.6,.76-.5,.97,.37,1.93-.04,2.91,.09,.96,.12,1.98-.27,2.99-.12,.23,.03,.48,.01,.72,0,.42-.01,.85,.13,.88,.53,.03,.48-.49,.49-.85,.49-1.13,.02-2.25,0-3.38,0Z"/>
  <path class="cls-8" d="M109.95,125.24c.61-.28,1.24,.28,1.85-.06,2.39,.23,4.79,.12,7.19,.21-.13,.84-.92,.73-1.38,.75-2.14,.09-4.3,.08-6.44,.02-.51-.01-1.24-.05-1.22-.91Z"/>
  <path class="cls-8" d="M139.22,28.17c-.02-1.22-.17-2.46-.03-3.66,.19-1.63-.49-2.57-1.91-3.15,.03-.3,.19-.38,.49-.34,1.14,.15,1.96,.94,2.2,2.16,.29,1.45,.27,2.89,0,4.34-.09,.45-.3,.66-.75,.65Z"/>
  <path class="cls-8" d="M120.63,152.46c-2.05,.01-4.1,.05-6.16,.04-1.18,0-2.38-1.05-2.49-2.07,.59,0,.84,.55,1.24,.84,1.35,.98,2.85,.72,4.29,.47,.96-.17,1.82,.13,2.72,.18,.26,.01,.37,.28,.39,.53Z"/>
  <path class="cls-8" d="M60.83,48.04c-.65-.04-.39-.55-.4-.85-.03-2.15,0-4.31-.03-6.46-.02-1.36-.12-2.73-.13-4.09,0-.68-.51-1.1-.71-1.67,1.16,.13,1.25,1.1,1.25,1.87,.02,3.67,.14,7.34-.05,11,0,.06,.04,.13,.07,.19Z"/>
  <path class="cls-8" d="M101.17,34.97c-1.01,1.26-.76,2.8-.82,4.22-.11,2.66-.03,5.33-.06,8,0,.31,.25,.82-.4,.85,0-3.64-.02-7.29,0-10.93,0-.95,.15-1.85,1.28-2.14Z"/>
  <path class="cls-8" d="M106.05,188.26c2.53,0,5.07-.22,7.59,.15-.03,.62-.44,.77-.91,.57-1.13-.48-2.3-.2-3.38-.03-.99,.15-1.88-.09-2.81-.12-.31-.01-.46-.26-.48-.56Z"/>
  <path class="cls-8" d="M139.37,44.2c0-1.42-.11-2.84,.13-4.26,.13-.76,.1-1.56-.15-2.31,.47-.05,.72,.23,.77,.63,.23,1.74,.02,3.49,0,5.24,0,.39-.33,.65-.75,.71Z"/>
  <path class="cls-8" d="M118.37,188.26c2.11-.01,4.23-.02,6.34-.04,.16,.04,.37,.03,.35,.28-.02,.19-.19,.33-.35,.31-1.89-.27-3.76,.54-5.65,.05-.37-.1-.65-.18-.69-.6Z"/>
  <path class="cls-8" d="M139.16,69.26c0-2.46,0-4.93,0-7.39,.47,.06,.51,.51,.52,.78,.04,2.04,.26,4.08-.12,6.11-.05,.25-.09,.47-.4,.5Z"/>
  <path class="cls-8" d="M139.19,51.59c-.18-1.92,.25-3.83,.17-5.75,1.01,.23,.7,1.18,.67,1.68-.06,1.01-.03,2.03-.07,3.04-.02,.54-.21,.91-.77,1.03Z"/>
  <path class="cls-8" d="M139.12,92.48c.24-1.71-.15-3.42,.06-5.13,.43-.01,.77,.13,.75,.61-.04,1.38,.19,2.77-.19,4.13-.09,.34-.14,.71-.62,.39Z"/>
  <path class="cls-8" d="M133.37,126.98c-1.78,0-3.56,.02-5.34,.03,.02-.25,.11-.53,.36-.55,1.53-.11,3.06-.37,4.59-.02,.26,.06,.36,.28,.38,.54Z"/>
  <path class="cls-8" d="M125.24,122.69c-.19-1.38,.21-2.74,.15-4.11,.03,0,.07,0,.1,0,1.16,.66,.61,1.78,.66,2.69,.03,.56,.06,1.38-.91,1.41Z"/>
  <path class="cls-8" d="M91.04,173.44c.02-.65,.07-1.3,.06-1.94-.03-1.21,.63-1.51,1.7-1.36,.37,.05,.75,.02,1.13,.03-.07,.52-.57,.57-.86,.55-1.24-.05-1.38,.73-1.4,1.65-.01,.47,.09,1.01-.62,1.07Z"/>
  <path class="cls-8" d="M101.3,173.65c0,1.64,.02,3.29,.02,4.93-.21-.02-.49-.07-.5-.27-.08-1.46-.46-2.92-.02-4.37,.06-.21,.29-.27,.5-.29Z"/>
  <path class="cls-8" d="M125.44,115.29c-.11-.82-.11-1.64,.11-2.44,.14-.51,.29-1.09,1.04-1.01-.14,.7-.19,1.41-.23,2.12-.04,.55,0,1.31-.92,1.33Z"/>
  <path class="cls-8" d="M109.82,23c.25,1.16,.39,2.34,.27,3.53-.95,.05-.72-.75-.84-1.24-.21-.84-.26-1.69,.57-2.29Z"/>
  <path class="cls-8" d="M160.26,176.11c.43,.04,1.02-.11,1,.56-.02,.57-.57,.49-.96,.47-.6-.04-1.21-.13-1.81-.2-.21-.02-.43-.06-.4-.34,.02-.21,.2-.24,.37-.27,.6-.07,1.2-.15,1.8-.22Z"/>
  <path class="cls-8" d="M138.1,142.83c0-1.78,0-3.56,0-5.34,.65,.35,.72,1,.51,1.54-.22,.59-.06,1.07-.01,1.63,.07,.73,.66,1.69-.5,2.18Z"/>
  <path class="cls-8" d="M110.13,28.17c.06,1.1,.34,2.18,.17,3.29-.69-.21-1.14-1.39-.87-2.4,.1-.36,0-.97,.7-.89Z"/>
  <path class="cls-8" d="M111.82,144.06c-.02-1.22-.04-2.44-.06-3.65,.08-.11,.21-.25,.32-.12,.53,.59,.6,3.05,.1,3.64-.07,.09-.24,.09-.37,.14Z"/>
  <path class="cls-8" d="M100.1,135.02c0-1.51,0-3.01,0-4.52,.11,.06,.32,.12,.33,.19,.15,1.37,.44,2.75,0,4.12-.03,.09-.21,.13-.33,.2Z"/>
  <path class="cls-8" d="M109.33,140.34l-3.29,.02c.04-.13,.05-.3,.13-.38,.61-.52,2.56-.29,3.15,.36Z"/>
  <path class="cls-8" d="M112,21.57c-.98-.09-1.67,.4-2.23,1.14-.05-1.22,.49-1.82,1.54-1.74,.4,.03,.65,.17,.69,.59Z"/>
  <path class="cls-8" d="M127.83,150.01c.89,0,1.78,0,2.67,0-.5,.9-2.03,.9-2.67,0Z"/>
  <path class="cls-8" d="M140.98,156.41c0,.35-.03,.75-.47,.75-.48,0-.51-.45-.55-.81-.03-.36,.05-.73,.49-.73,.51,0,.53,.41,.53,.8Z"/>
  <path class="cls-8" d="M127.21,139.95c0,.82,0,1.64,0,2.47-.85-.12-.59-.79-.6-1.29-.01-.48-.18-1.09,.61-1.18Z"/>
  <path class="cls-8" d="M138.1,129.47c-.01-.82-.03-1.63-.04-2.45,.62,0,.72,.44,.65,.9-.09,.55,.4,1.35-.6,1.56Z"/>
  <path class="cls-8" d="M122.86,150.08c-.01,.39-.25,.54-.59,.55-.41,0-.92,0-.95-.51-.03-.39,.43-.46,.77-.49,.36-.03,.68,.03,.78,.46Z"/>
  <path class="cls-8" d="M137.48,111.83c.65-.23,1.06-.73,1.44-1.26,.48,.64,.13,1.1-.37,1.46-.36,.25-.82,.45-1.07-.2Z"/>
  <path class="cls-8" d="M110.33,33.1c.06,1.14-.17,1.45-1.2,1.58,.07-.78,.43-1.34,1.2-1.58Z"/>
  <path class="cls-8" d="M152.95,164.18c.29,.27,.53,.63,.97,.69-.07,.47-.37,.62-.78,.53-.38-.09-.68-.37-.77-.71-.1-.39,.28-.46,.58-.5Z"/>
  <path class="cls-8" d="M123.92,125.35c.54-.37,1.18-.67,1.29-1.43,.67,.18,.7,.54,.27,1-.43,.46-.94,.66-1.56,.43Z"/>
  <path class="cls-8" d="M137.68,154.56c-.03,.34-.19,.6-.57,.54-.32-.05-.6-.27-.57-.62,.02-.32,.2-.59,.6-.56,.37,.03,.54,.26,.54,.63Z"/>
  <path class="cls-8" d="M103.99,140.37c-.28,0-.55-.01-.83-.02-.51-.39-1.09-.1-1.64-.19,.64-.69,1.91-.58,2.47,.21Z"/>
  <path class="cls-8" d="M108.28,190.6c-.07,.4-.33,.52-.67,.49-.31-.03-.53-.2-.5-.52,.03-.38,.32-.5,.66-.47,.31,.02,.49,.21,.51,.5Z"/>
  <path class="cls-8" d="M105.21,200.21c.01,.3-.06,.54-.42,.54-.3,0-.53-.14-.56-.46-.03-.32,.17-.49,.47-.53,.33-.04,.51,.11,.5,.45Z"/>
  <path class="cls-8" d="M127.45,127.06c-.02,.46-.04,.92-.06,1.39-.59-.16-.61-.64-.56-1.11,.04-.35,.2-.69,.63-.28Z"/>
  <path class="cls-8" d="M138.1,131.93c0-.48,0-.96,0-1.44,.49,.03,.63,.33,.61,.77-.01,.41-.2,.64-.62,.67Z"/>
  <path class="cls-8" d="M124.8,165.63c-.11-.59,.54-.89,.55-1.43,.65,.53,.51,.88-.55,1.43Z"/>
  <path class="cls-8" d="M131.52,150.02c.48,0,.96,0,1.44,0-.03,.42-.26,.6-.67,.62-.44,.01-.74-.13-.77-.61Z"/>
  <path class="cls-8" d="M138.1,145.29c0-.48,0-.96,0-1.44,.49,.03,.63,.33,.61,.77-.01,.41-.2,.64-.62,.67Z"/>
  <path class="cls-8" d="M127.21,143.44c0,.48,0,.96,0,1.44-.42-.03-.6-.26-.62-.67-.01-.44,.13-.74,.61-.77Z"/>
  <path class="cls-8" d="M101.5,187.21c.09,.35-.09,.76,.22,1.07-.04,.24-.15,.4-.4,.23-.23-.15-.45-.35-.38-.67,.07-.3,.17-.6,.56-.63Z"/>
  <path class="cls-8" d="M97.77,25.14c.35,.11,.25,.42,.25,.67,0,.24-.04,.53-.38,.43-.34-.1-.21-.44-.22-.69,0-.21,.05-.4,.34-.4Z"/>
  <path class="cls-8" d="M154.74,109.28c-.36,.08-.7,.03-1.03-.15,.02-.34,.16-.62,.54-.59,.44,.03,.5,.38,.49,.74Z"/>
  <path class="cls-8" d="M142,154.31c-.24,0-.37-.13-.38-.37,0-.3,.17-.43,.45-.4,.25,.02,.33,.19,.33,.42-.01,.25-.16,.35-.4,.35Z"/>
  <path class="cls-8" d="M107.66,192.82c.24,0,.37,.15,.4,.37,.04,.27-.07,.48-.35,.51-.24,.03-.37-.15-.4-.36-.04-.27,.08-.45,.35-.52Z"/>
  <path class="cls-8" d="M134.34,188.05c-.05,.22-.19,.36-.41,.32-.16-.03-.3-.16-.27-.35,.03-.23,.18-.36,.41-.32,.16,.03,.28,.16,.28,.36Z"/>
  <path class="cls-8" d="M100.5,170.18c.56,.12,.71,.48,.63,1-.67-.05-.63-.53-.63-1Z"/>
  <path class="cls-8" d="M100.08,125.77c0-.2,.01-.39,.02-.59,.27,0,.54,0,.81,0-.04,.52-.4,.6-.83,.59Z"/>
  <path class="cls-7" d="M101.52,140.15c.54,.09,1.13-.19,1.64,.19-.55,0-1.09,0-1.64,0,0-.06,0-.13,0-.19Z"/>
  <path class="cls-8" d="M114.3,140.35c-.14,0-.29,0-.32-.16-.04-.19,.13-.2,.26-.22,.14-.02,.29,0,.32,.16,.04,.19-.14,.19-.26,.22Z"/>
  <path class="cls-8" d="M153.1,114.47c0,.21,0,.41-.01,.62-.17-.03-.34-.05-.36-.27-.03-.27,.17-.32,.37-.35Z"/>
  <path class="cls-8" d="M146.47,115.72c.09-.05,.17-.12,.25-.12,.18,0,.2,.14,.17,.26-.02,.06-.12,.1-.19,.15-.05-.07-.1-.14-.22-.3Z"/>
  <path class="cls-8" d="M163.78,109.27c-.14,0-.27,0-.41,0,.03-.17-.06-.45,.21-.45,.27,0,.17,.28,.21,.45Z"/>
  <path class="cls-8" d="M124.9,177.74c.03-.22,.02-.46,.24-.61,.37,.38,.24,.56-.24,.61Z"/>
  <path class="cls-8" d="M85.91,188.45c.17-.23,.38-.19,.61-.11-.14,.39-.35,.39-.61,.11Z"/>
  <path class="cls-8" d="M125.35,164.2c-.27-.12-.41-.33-.4-.63,.42,.02,.41,.32,.4,.63Z"/>
  <path class="cls-8" d="M144.19,177.4c-.06,.02-.13,.08-.17,.06-.04-.02-.05-.11-.07-.16,.06-.02,.13-.08,.17-.06,.04,.02,.05,.11,.07,.16Z"/>
  <path class="cls-8" d="M89.81,188.28c.14,0,.27,0,.41,0-.02,.13-.04,.28-.2,.28-.16,0-.18-.15-.2-.28Z"/>
  <path class="cls-8" d="M101.53,125.18c.14,0,.27,0,.41,0-.02,.13-.04,.29-.2,.29-.17,0-.18-.16-.2-.29Z"/>
  <path class="cls-8" d="M115.65,140.04c.06,.02,.11,.05,.17,.07-.02,.06-.04,.15-.08,.16-.04,.02-.11-.04-.17-.06,.02-.06,.05-.11,.07-.17Z"/>
  <path class="cls-3" d="M195.43,95.56c-.04,4.53-.36,9.05-.15,13.58-.73-.25-1.48-.21-2.23-.21-4.21,0-8.42,0-12.62,0,0-4.38,0-8.76,0-13.14,5-.28,10-.2,15.01-.22Z"/>
  <path class="cls-5" d="M59.65,93.09c-1.03,0-2.05,0-3.08,0-.71,0-1.1-.28-1.09-1.03,.02-2.47-.14-4.93-.04-7.4,.05-1.34,.19-2.7-.09-4.05-.19-.95,.14-1.9,.18-2.85,.02-.52,.52-.66,1-.67,2.25-.07,4.51,.1,6.76-.1,.71-.06,1.1,.48,1.01,1.24-.27,2.31-.06,4.63-.07,6.94,0,2.35-.04,4.71-.12,7.06-.02,.73-.62,.84-1.18,.85-1.09,.03-2.19,0-3.29,0,0,0,0,0,0,0Z"/>
  <path class="cls-5" d="M100.74,92.88c-1.03,0-2.05,0-3.08,0-.71,0-1.1-.29-1.09-1.03,.02-2.47-.14-4.93-.04-7.4,.05-1.34,.19-2.7-.09-4.05-.19-.95,.14-1.9,.18-2.85,.02-.52,.52-.66,1-.67,2.25-.07,4.51,.1,6.76-.1,.71-.06,1.1,.48,1.01,1.24-.27,2.31-.06,4.63-.07,6.94,0,2.35-.04,4.71-.12,7.06-.02,.73-.62,.84-1.18,.85-1.09,.03-2.19,0-3.29,0,0,0,0,0,0,0Z"/>
  <path class="cls-6" d="M76.04,140.38c2.81,0,5.62,0,8.42,0,0,1.53,0,3.05,0,4.58,0,.82-.02,1.64,.01,2.46,.03,.8-.3,1.18-1.14,1.2-2.18,.04-4.36-.13-6.54,.09-.45,.05-.95-.16-.94-.72,.05-2.41-.21-4.82,.02-7.23,.01-.13,.11-.25,.16-.37Z"/>
  <path class="cls-9" d="M80.4,100.28c1.06,0,2.12,.01,3.18,0,.69-.01,1.07,.32,1,.98-.22,2.04-.08,4.09-.09,6.14,0,.95-.33,1.34-1.31,1.36-2.11,.03-4.23-.17-6.34,.11-.54,.07-1.06-.23-.99-.9,.26-2.23-.22-4.45-.02-6.68,.07-.79,.58-.95,1.19-.97,1.13-.03,2.25,0,3.38,0,0,0,0-.01,0-.02Z"/>
</svg>